<svg width="165" height="63" viewBox="0 0 165 63" fill="none" xmlns="http://www.w3.org/2000/svg">
<g clip-path="url(#clip0)">
<path fill-rule="evenodd" clip-rule="evenodd" d="M40.053 12.7049C40.1702 12.6334 40.2577 12.522 40.2997 12.3912C40.3417 12.2603 40.3353 12.1187 40.2817 11.9922C38.5776 7.87204 36.2979 4.01533 33.511 0.537643C33.3162 0.302709 33.0541 0.133458 32.76 0.0528301C32.466 -0.0277975 32.1544 -0.0159017 31.8674 0.0869051C31.5803 0.189712 31.3318 0.378457 31.1554 0.627557C30.9791 0.876657 30.8834 1.17406 30.8814 1.47946C30.8814 15.9631 25.5589 25.4322 16.5143 32.1267C16.4757 32.1633 16.4529 32.2136 16.4508 32.2667C16.9175 38.4983 18.1113 44.6535 20.0076 50.6067C20.016 50.6473 20.0402 50.6827 20.0747 50.7054C20.1093 50.7281 20.1514 50.7361 20.1918 50.7277C20.2322 50.7192 20.2677 50.695 20.2903 50.6604C20.3129 50.6258 20.3209 50.5836 20.3125 50.5431C19.8461 43.0321 21.4388 35.5364 24.9183 28.867C28.3978 22.1976 33.6315 16.6087 40.053 12.7049ZM42.9112 22.8867C37.1902 25.5866 32.291 29.7659 28.7185 34.994C25.1459 40.2221 23.0292 46.3099 22.5863 52.6304H22.1925C21.2974 45.1673 22.5424 37.6032 25.7819 30.8233C29.0214 24.0434 34.1214 18.3282 40.485 14.3467C40.5591 14.3021 40.6422 14.2746 40.7283 14.2661C40.8144 14.2576 40.9013 14.2684 40.9827 14.2976C41.0641 14.3268 41.138 14.3738 41.1992 14.4351C41.2603 14.4964 41.307 14.5706 41.3361 14.6522C42.1879 17.1393 42.8295 19.6938 43.2542 22.2886C43.2715 22.4124 43.2487 22.5385 43.1893 22.6484C43.1299 22.7583 43.0369 22.8463 42.9239 22.8995L42.9112 22.8867ZM14.6088 33.4377C14.6329 33.4221 14.6606 33.4131 14.6893 33.4116C14.7179 33.41 14.7464 33.416 14.772 33.4288C14.7977 33.4417 14.8195 33.461 14.8354 33.4848C14.8514 33.5087 14.8608 33.5363 14.8629 33.5649C15.3792 39.349 16.5076 45.0617 18.2292 50.6067C18.2448 50.6388 18.2486 50.6754 18.2401 50.7101C18.2316 50.7447 18.2112 50.7753 18.1825 50.7965C18.1538 50.8176 18.1187 50.8281 18.0831 50.826C18.0475 50.8239 18.0138 50.8093 17.9878 50.7849C13.0044 47.4087 7.47213 44.928 1.639 43.454C1.21626 43.4541 0.808843 43.2954 0.497189 43.0092C0.185536 42.723 -0.00771098 42.3302 -0.0444023 41.9082C-0.0810937 41.4863 0.0414365 41.0658 0.299 40.73C0.556564 40.3941 0.930444 40.1672 1.34683 40.094C5.92225 38.1993 10.3545 35.9747 14.6088 33.4377ZM42.7715 35.2195C42.8635 35.1896 42.9616 35.183 43.0567 35.2004C43.1519 35.2178 43.2413 35.2586 43.3169 35.3192C43.3924 35.3797 43.4518 35.4582 43.4896 35.5474C43.5275 35.6366 43.5426 35.7338 43.5337 35.8304C43.2945 37.8242 42.9296 39.8009 42.4412 41.7486C42.4117 41.8522 42.3549 41.9459 42.2766 42.0199C42.1984 42.0938 42.1016 42.1452 41.9966 42.1686C41.0173 42.382 40.0539 42.6626 39.113 43.0086C36.1627 44.1106 33.493 45.8545 31.2964 48.1147C29.0998 50.375 27.4309 53.0952 26.41 56.0795L25.8002 55.9777C26.5323 51.322 28.4894 46.9458 31.4701 43.2996C34.4508 39.6533 38.3473 36.8687 42.7588 35.2322L42.7715 35.2195ZM40.8533 44.1286C40.9535 44.1039 41.0584 44.1063 41.1573 44.1354C41.2563 44.1645 41.3458 44.2193 41.4167 44.2943C41.4877 44.3692 41.5376 44.4617 41.5614 44.5623C41.5851 44.6628 41.5819 44.7679 41.552 44.8667C39.4046 51.4541 35.8401 57.4888 31.1101 62.5449C30.9515 62.7171 30.7542 62.849 30.5347 62.9296C30.3151 63.0103 30.0795 63.0375 29.8474 63.0089C29.6153 62.9803 29.3934 62.8967 29.1999 62.7651C29.0063 62.6336 28.8469 62.4578 28.7346 62.2522C28.2264 61.3495 27.6709 60.4744 27.0705 59.6304C27.6714 56.2309 29.1494 53.048 31.3578 50.3979C33.5661 47.7477 36.428 45.7224 39.6593 44.5231C40.053 44.3831 40.4468 44.2431 40.8533 44.1286ZM43.6226 25.3176C43.7902 26.9286 43.875 28.5471 43.8767 30.1667C43.8767 31.0576 43.8767 31.9486 43.8004 32.8267C43.7932 32.9447 43.7504 33.0576 43.6779 33.1507C43.6053 33.2439 43.5063 33.3128 43.394 33.3486C43.0002 33.4758 42.5937 33.6031 42.1999 33.7558C37.7474 35.3963 33.7818 38.139 30.6722 41.7285C27.5626 45.318 25.4103 49.6376 24.4156 54.2849H24.0853C24.2493 48.1382 26.0767 42.1516 29.3723 36.9645C32.668 31.7774 37.308 27.5846 42.7969 24.834C42.8791 24.7924 42.9701 24.7713 43.0622 24.7725C43.1543 24.7737 43.2447 24.7972 43.3258 24.8409C43.4068 24.8846 43.4762 24.9474 43.5279 25.0237C43.5795 25.1001 43.612 25.1878 43.6226 25.2795V25.3176Z" fill="white"/>
<path fill-rule="evenodd" clip-rule="evenodd" d="M140.725 35.1486C140.714 34.6508 140.803 34.156 140.987 33.6932C141.17 33.2304 141.443 32.8088 141.791 32.4532C142.139 32.0976 142.554 31.8152 143.012 31.6224C143.47 31.4296 143.962 31.3303 144.459 31.3304C145.26 31.334 146.037 31.6024 146.67 32.0941L140.852 36.2431C140.755 35.904 140.713 35.5519 140.725 35.1995V35.1486ZM108.154 38.9668C107.13 38.9668 106.147 38.5591 105.423 37.8335C104.699 37.108 104.292 36.1238 104.292 35.0977C104.292 34.0715 104.699 33.0874 105.423 32.3618C106.147 31.6362 107.13 31.2286 108.154 31.2286C108.647 31.2263 109.136 31.3247 109.59 31.5179C110.045 31.7111 110.455 31.995 110.796 32.3523C111.137 32.7096 111.402 33.1328 111.575 33.596C111.747 34.0593 111.824 34.5529 111.8 35.0468C111.826 35.5411 111.75 36.0355 111.579 36.4996C111.407 36.9637 111.142 37.3876 110.8 37.7453C110.459 38.1029 110.048 38.3868 109.593 38.5794C109.138 38.7719 108.648 38.8691 108.154 38.865V38.9668ZM112.117 43.4341H115.598C115.733 43.4341 115.862 43.3804 115.957 43.2849C116.052 43.1895 116.106 43.06 116.106 42.925V27.2959C116.106 27.1609 116.052 27.0314 115.957 26.9359C115.862 26.8404 115.733 26.7868 115.598 26.7868H112.117C111.982 26.7868 111.853 26.8404 111.758 26.9359C111.663 27.0314 111.609 27.1609 111.609 27.2959V28.2377C110.523 27.3128 109.147 26.7993 107.722 26.7868C105.577 26.8599 103.547 27.7801 102.077 29.3466C100.606 30.9131 99.8132 32.9988 99.8715 35.1486C99.81 37.2969 100.602 39.3817 102.074 40.9449C103.546 42.5081 105.578 43.4217 107.722 43.485C108.436 43.5103 109.149 43.3916 109.816 43.1358C110.484 42.88 111.094 42.4923 111.609 41.9959V42.9759C111.609 43.1109 111.663 43.2404 111.758 43.3358C111.853 43.4313 111.982 43.485 112.117 43.485V43.4341ZM91.9194 36.6504C92.9356 36.8159 93.3421 37.2613 93.3421 37.9231C93.3472 38.0766 93.3188 38.2293 93.2589 38.3706C93.1991 38.512 93.1092 38.6385 92.9955 38.7415C92.8818 38.8445 92.7471 38.9214 92.6008 38.9669C92.4544 39.0124 92.2999 39.0254 92.148 39.005C91.6207 39.0274 91.1014 38.8704 90.6745 38.5595C90.5865 38.4934 90.4795 38.4577 90.3696 38.4577C90.2597 38.4577 90.1527 38.4934 90.0647 38.5595L87.0795 40.7231C87.0167 40.7659 86.9646 40.8226 86.9271 40.8888C86.8897 40.955 86.8679 41.029 86.8636 41.105C86.8554 41.1782 86.8651 41.2522 86.8916 41.3209C86.9181 41.3896 86.9608 41.4509 87.016 41.4995C87.684 42.1581 88.4793 42.6728 89.3531 43.012C90.2269 43.3513 91.1608 43.5079 92.0972 43.4722C95.5525 43.4722 98.2328 41.2577 98.2328 37.9868C98.2328 34.7159 95.9844 33.1759 93.0499 32.7941C91.7161 32.6286 91.335 32.3104 91.335 31.7759C91.3377 31.6569 91.3652 31.5399 91.4158 31.4322C91.4663 31.3246 91.5388 31.2287 91.6285 31.1508C91.7182 31.0729 91.8232 31.0146 91.9368 30.9798C92.0503 30.945 92.1699 30.9344 92.2878 30.9486C92.7155 30.9535 93.1283 31.1064 93.4564 31.3813C93.5435 31.4494 93.6508 31.4864 93.7613 31.4864C93.8718 31.4864 93.9791 31.4494 94.0662 31.3813L96.6068 29.5741C96.6632 29.5346 96.7104 29.4835 96.7455 29.4242C96.7805 29.365 96.8026 29.2989 96.8101 29.2304C96.8209 29.1623 96.8163 29.0925 96.7965 29.0264C96.7767 28.9603 96.7423 28.8995 96.6957 28.8486C96.1701 28.1764 95.4933 27.6382 94.7207 27.2777C93.9481 26.9172 93.1014 26.7446 92.2497 26.7741C89.8742 26.7741 86.9906 28.8231 86.9906 31.6231C86.9906 34.4231 89.0485 36.2813 91.9575 36.7141L91.9194 36.6504ZM84.4627 26.7359H80.982C80.8473 26.7359 80.718 26.7895 80.6227 26.885C80.5275 26.9805 80.4739 27.1099 80.4739 27.245V42.9759C80.4739 43.1109 80.5275 43.2404 80.6227 43.3358C80.718 43.4313 80.8473 43.485 80.982 43.485H84.4627C84.5974 43.485 84.7267 43.4313 84.822 43.3358C84.9173 43.2404 84.9708 43.1109 84.9708 42.9759V27.2959C84.9708 27.1609 84.9173 27.0314 84.822 26.9359C84.7267 26.8404 84.5974 26.7868 84.4627 26.7868V26.7359ZM82.7224 19.4559C83.2405 19.466 83.7442 19.6285 84.1708 19.9232C84.5975 20.2179 84.9282 20.6318 85.1219 21.1134C85.3155 21.595 85.3635 22.123 85.26 22.6317C85.1564 23.1404 84.9058 23.6074 84.5394 23.9745C84.173 24.3417 83.7069 24.5927 83.1991 24.6965C82.6913 24.8003 82.1643 24.7522 81.6837 24.5581C81.203 24.3641 80.7899 24.0327 80.4957 23.6053C80.2016 23.1778 80.0394 22.6732 80.0293 22.1541C80.0293 21.452 80.3077 20.7786 80.8032 20.2821C81.2987 19.7857 81.9708 19.5068 82.6716 19.5068L82.7224 19.4559ZM59.5266 26.7231C58.4253 26.7582 57.3489 27.0595 56.3889 27.6013C56.3123 27.6473 56.2247 27.6716 56.1355 27.6718C56.0462 27.672 55.9585 27.648 55.8817 27.6023C55.8049 27.5567 55.7419 27.4911 55.6992 27.4125C55.6566 27.3339 55.6359 27.2453 55.6395 27.1559V20.0286C55.6395 19.9341 55.6132 19.8414 55.5636 19.761C55.514 19.6805 55.443 19.6155 55.3586 19.5733C55.2742 19.531 55.1797 19.5131 55.0857 19.5216C54.9917 19.5301 54.9019 19.5646 54.8265 19.6213L51.3585 22.1668C51.2951 22.2168 51.2439 22.2806 51.2087 22.3534C51.1735 22.4261 51.1552 22.5059 51.1553 22.5868V42.9504C51.1553 43.0854 51.2088 43.2149 51.3041 43.3104C51.3994 43.4059 51.5286 43.4595 51.6634 43.4595H55.1313C55.2661 43.4595 55.3953 43.4059 55.4906 43.3104C55.5859 43.2149 55.6395 43.0854 55.6395 42.9504V41.9959C56.1547 42.4923 56.7644 42.88 57.4321 43.1358C58.0999 43.3916 58.8121 43.5103 59.5266 43.485C61.6629 43.4053 63.6813 42.4831 65.1422 40.9194C66.603 39.3556 67.3881 37.2769 67.3263 35.1359C67.3951 32.9868 66.6143 30.8974 65.1537 29.322C63.6931 27.7466 61.6708 26.8126 59.5266 26.7231ZM59.082 38.9668C58.589 38.9692 58.1007 38.8707 57.6471 38.6774C57.1935 38.484 56.784 38.1999 56.4439 37.8424C56.1037 37.4849 55.84 37.0616 55.6689 36.5984C55.4978 36.1352 55.423 35.6418 55.4489 35.1486C55.4248 34.6558 55.5009 34.1632 55.6727 33.7008C55.8444 33.2385 56.1082 32.8159 56.448 32.4588C56.7878 32.1016 57.1965 31.8175 57.6493 31.6235C58.1021 31.4295 58.5895 31.3298 59.082 31.3304C60.1062 31.3304 61.0884 31.7381 61.8126 32.4636C62.5368 33.1892 62.9437 34.1734 62.9437 35.1995C62.9437 36.2257 62.5368 37.2098 61.8126 37.9354C61.0884 38.661 60.1062 39.0686 59.082 39.0686V38.9668ZM134.182 35.1486C134.182 30.5159 131.146 26.7868 126.777 26.7868C125.241 26.7099 123.735 27.2296 122.572 28.2377V27.2959C122.572 27.1609 122.518 27.0314 122.423 26.9359C122.328 26.8404 122.198 26.7868 122.064 26.7868H118.583C118.451 26.7901 118.325 26.8452 118.232 26.9403C118.139 27.0354 118.088 27.163 118.088 27.2959V42.9759C118.086 43.0421 118.098 43.108 118.122 43.1697C118.146 43.2314 118.182 43.2877 118.228 43.3351C118.274 43.3826 118.33 43.4203 118.391 43.446C118.451 43.4717 118.517 43.485 118.583 43.485H122.064C122.198 43.485 122.328 43.4313 122.423 43.3358C122.518 43.2404 122.572 43.1109 122.572 42.9759V35.1486C122.55 34.6414 122.634 34.1353 122.818 33.6623C123.002 33.1892 123.282 32.7596 123.64 32.4007C123.998 32.0417 124.427 31.7612 124.899 31.577C125.371 31.3928 125.877 31.3088 126.383 31.3304C128.212 31.3304 129.698 32.6031 129.698 35.1486V42.9759C129.698 43.1109 129.752 43.2404 129.847 43.3358C129.942 43.4313 130.072 43.485 130.206 43.485H133.649C133.784 43.485 133.913 43.4313 134.008 43.3358C134.104 43.2404 134.157 43.1109 134.157 42.9759V35.1486H134.182ZM165 30.4268V27.2959C165.002 27.2296 164.99 27.1637 164.966 27.102C164.942 27.0403 164.906 26.9841 164.86 26.9366C164.813 26.8892 164.758 26.8515 164.697 26.8257C164.636 26.8 164.571 26.7868 164.505 26.7868H161.215V22.7777C161.216 22.6843 161.19 22.5926 161.141 22.5136C161.091 22.4345 161.02 22.3715 160.935 22.3322C160.855 22.2827 160.763 22.2564 160.668 22.2564C160.574 22.2564 160.482 22.2827 160.402 22.3322L156.921 24.8777C156.858 24.9277 156.806 24.9915 156.771 25.0643C156.736 25.137 156.718 25.2168 156.718 25.2977V26.7741H154.825C154.69 26.7741 154.561 26.8277 154.466 26.9232C154.37 27.0186 154.317 27.1481 154.317 27.2831V30.4141C154.317 30.5491 154.37 30.6786 154.466 30.774C154.561 30.8695 154.69 30.9231 154.825 30.9231H156.718V36.5231C156.718 40.5195 159.881 43.2813 164.339 43.485C164.409 43.4907 164.48 43.4812 164.545 43.457C164.611 43.4329 164.671 43.3946 164.721 43.345C164.771 43.2979 164.81 43.2406 164.837 43.1769C164.863 43.1133 164.875 43.0447 164.873 42.9759V39.5268C164.877 39.3972 164.829 39.2715 164.741 39.1764C164.654 39.0812 164.532 39.0243 164.403 39.0177C162.574 38.8904 161.176 38.0631 161.176 36.3959V30.9359H164.467C164.533 30.9359 164.598 30.9226 164.659 30.8969C164.72 30.8712 164.775 30.8335 164.821 30.786C164.868 30.7386 164.904 30.6823 164.928 30.6206C164.952 30.5589 164.964 30.493 164.962 30.4268H165ZM78.0222 26.7995H77.3871C76.7305 26.7851 76.078 26.9065 75.4704 27.1562C74.8628 27.4058 74.3131 27.7783 73.8556 28.2504V27.5886C73.8513 27.4959 73.8224 27.4061 73.7719 27.3283C73.7214 27.2505 73.6511 27.1877 73.5683 27.1462C73.4855 27.1047 73.3931 27.0861 73.3007 27.0923C73.2083 27.0984 73.1192 27.1292 73.0426 27.1813L69.562 29.7268C69.4981 29.7735 69.4464 29.8348 69.411 29.9057C69.3757 29.9765 69.3577 30.0548 69.3587 30.1341V42.9759C69.3587 43.1109 69.4123 43.2404 69.5076 43.3358C69.6029 43.4313 69.7321 43.485 69.8669 43.485H73.3348C73.4026 43.4867 73.47 43.4747 73.5332 43.4499C73.5963 43.4251 73.6538 43.3879 73.7023 43.3404C73.7509 43.293 73.7894 43.2363 73.8158 43.1737C73.8421 43.1111 73.8557 43.0438 73.8556 42.9759V35.1486C73.8556 32.6031 75.3419 31.3304 77.0822 31.3304C77.3544 31.3321 77.6261 31.3534 77.8952 31.3941C77.9691 31.4116 78.046 31.412 78.12 31.395C78.194 31.3781 78.2632 31.3443 78.3221 31.2964C78.3811 31.2484 78.4282 31.1875 78.4599 31.1184C78.4916 31.0492 78.507 30.9737 78.5049 30.8977V27.3086C78.5051 27.1779 78.4551 27.0521 78.3652 26.9573C78.2754 26.8626 78.1525 26.806 78.0222 26.7995ZM148.003 37.7831C147.595 38.2054 147.102 38.5369 146.557 38.7562C146.012 38.9754 145.427 39.0775 144.84 39.0559C144.409 39.0712 143.978 39.0064 143.57 38.865L152.183 32.6922C152.277 32.6258 152.346 32.5291 152.379 32.4181C152.411 32.307 152.405 32.1882 152.361 32.0813C151.724 30.5236 150.638 29.1915 149.242 28.2552C147.846 27.3189 146.203 26.8209 144.523 26.825C143.43 26.8266 142.348 27.0444 141.339 27.4659C140.33 27.8873 139.414 28.5041 138.643 29.2809C137.872 30.0577 137.262 30.9792 136.848 31.9927C136.433 33.0061 136.223 34.0916 136.228 35.1868C136.287 37.4217 137.221 39.5437 138.827 41.0957C140.433 42.6478 142.584 43.5058 144.815 43.485C146.074 43.5048 147.323 43.2563 148.48 42.7561C149.636 42.2558 150.673 41.5152 151.522 40.5831C151.566 40.5309 151.598 40.4704 151.618 40.4053C151.637 40.3403 151.644 40.2719 151.637 40.2043C151.63 40.1367 151.609 40.0712 151.576 40.0116C151.544 39.9521 151.499 39.8998 151.446 39.8577L148.664 37.7195C148.565 37.6464 148.443 37.6124 148.321 37.6241C148.199 37.6359 148.086 37.6925 148.003 37.7831Z" fill="white"/>
</g>
<defs>
<clipPath id="clip0">
<rect width="165" height="63" fill="white"/>
</clipPath>
</defs>
</svg>
