<svg width="32" height="32" viewBox="0 0 32 32" fill="none" xmlns="http://www.w3.org/2000/svg">
<path fill-rule="evenodd" clip-rule="evenodd" d="M8.62721 2.66905L8.66271 2.67134C9.36123 2.72924 9.96791 3.07637 10.5217 3.61748C11.5742 4.64539 13.8342 7.64497 14.0048 8.46129C14.1936 9.37196 13.9917 9.96344 13.3898 11.0097L13.2439 11.2676C12.9677 11.7721 12.9255 11.9804 13.011 12.2189C14.3252 15.4352 16.5678 17.6774 19.7474 18.976C20.0485 19.0851 20.2758 19.0226 20.9122 18.6576L21.2442 18.4697C22.1389 17.979 22.7059 17.824 23.542 17.9981C24.3555 18.1686 27.3567 20.43 28.3831 21.4811C28.9235 22.0344 29.2713 22.6422 29.3319 23.3867C29.3958 25.1963 27.1877 27.7443 25.8407 28.5104C24.3088 29.6062 22.3649 29.588 20.1852 28.5736C14.4854 26.2017 5.76663 17.5387 3.44314 11.8458L3.30405 11.5274C2.42179 9.41873 2.44091 7.59696 3.45193 6.22352C4.37446 4.69577 6.86176 2.5874 8.62721 2.66905ZM8.51945 4.61869L8.40191 4.62472C7.49578 4.7451 5.67866 6.30949 5.07352 7.30451L4.96898 7.46008C4.44767 8.30945 4.50808 9.47589 5.23388 11.073L5.37259 11.3977C7.71329 16.651 15.8177 24.643 20.9711 26.7882L21.2549 26.9145C22.7459 27.5465 23.8746 27.5184 24.7884 26.8705L24.856 26.827C25.1388 26.6305 25.7908 26.0381 26.2931 25.4585C26.9985 24.6445 27.3981 23.8987 27.3852 23.5016C27.3711 23.3318 27.24 23.1028 26.9876 22.8443C26.2246 22.063 23.4498 19.9722 23.1431 19.9079C22.8531 19.8475 22.6151 19.9287 21.9642 20.3031L21.6368 20.487C20.6779 21.0042 20.0018 21.1432 19.0468 20.7965C15.3454 19.2857 12.7177 16.6584 11.191 12.9198C10.8294 11.9202 11.024 11.213 11.6529 10.1169L11.8027 9.85329C12.0884 9.33746 12.1489 9.11861 12.0951 8.859C12.0306 8.55064 9.94115 5.77741 9.15873 5.01324C8.89964 4.76009 8.67199 4.62983 8.5016 4.61571L8.51945 4.61869Z" fill="#F56E28"/>
</svg>
